<svg width="26" height="25" viewBox="0 0 26 25" fill="none" xmlns="http://www.w3.org/2000/svg">
<path d="M13.4531 0.701782L8.74062 3.65178H4.70312V6.15178L2.16563 7.76428C1.44063 8.20178 0.953125 8.98928 0.953125 9.90178V22.4018C0.953125 23.0648 1.21652 23.7007 1.68536 24.1695C2.1542 24.6384 2.79008 24.9018 3.45312 24.9018H23.4531C24.8406 24.9018 25.9531 23.7893 25.9531 22.4018V9.90178C25.9531 8.98928 25.4656 8.20178 24.7406 7.76428L22.2031 6.15178V3.65178H18.1656M7.20312 6.15178H19.7031V12.2518L13.4531 16.1518L7.20312 12.2518M8.45312 7.40178V9.27678H18.4531V7.40178M4.70312 9.12678V10.6893L3.45312 9.90178M22.2031 9.12678L23.4531 9.90178L22.2031 10.6893M8.45312 10.5268V12.4018H18.4531V10.5268H8.45312Z" fill="#FFC700"/>
</svg>
