<svg width="26" height="24" viewBox="0 0 26 24" fill="none" xmlns="http://www.w3.org/2000/svg">
<path d="M10.1369 21.5266C10.1768 21.5621 10.2272 21.5836 10.2804 21.5879C10.3336 21.5921 10.3867 21.5789 10.4317 21.5502C10.4767 21.5214 10.5111 21.4788 10.5296 21.4288C10.5482 21.3787 10.5499 21.324 10.5344 21.2729L7.38443 10.4754C7.35587 10.3771 7.29792 10.29 7.21837 10.2256C7.13882 10.1612 7.04148 10.1228 6.93943 10.1154C6.42943 10.0779 5.92068 10.0366 5.41193 9.99036L1.19943 9.60661C1.1549 9.60228 1.11002 9.61011 1.06958 9.62925C1.02914 9.6484 0.994643 9.67814 0.969765 9.71534C0.944886 9.75253 0.930554 9.79576 0.928294 9.84045C0.926035 9.88514 0.935931 9.9296 0.956932 9.96911C3.23568 14.2316 6.51693 18.2941 10.1369 21.5266ZM13.2269 23.8091C13.2519 23.8966 13.3269 23.9616 13.4182 23.9616C13.4623 23.9603 13.5048 23.9448 13.5392 23.9173C13.5737 23.8898 13.5984 23.8518 13.6094 23.8091L17.4644 10.5929C17.4759 10.5545 17.478 10.5139 17.4705 10.4746C17.463 10.4352 17.4462 10.3983 17.4215 10.3668C17.3967 10.3353 17.3648 10.3102 17.3283 10.2937C17.2918 10.2771 17.2519 10.2695 17.2119 10.2716C14.6839 10.3801 12.1524 10.3801 9.62443 10.2716C9.58458 10.2696 9.54482 10.2772 9.50849 10.2937C9.47215 10.3102 9.4403 10.3351 9.41558 10.3664C9.39086 10.3978 9.374 10.4345 9.36641 10.4737C9.35881 10.5129 9.36071 10.5533 9.37193 10.5916L13.2269 23.8091ZM16.3019 21.2729C16.2319 21.5104 16.5144 21.6916 16.6994 21.5266C20.3194 18.2929 23.6007 14.2316 25.8794 9.96911C25.9004 9.9297 25.9102 9.88537 25.908 9.8408C25.9058 9.79624 25.8916 9.7531 25.8669 9.71595C25.8421 9.6788 25.8078 9.64903 25.7676 9.62979C25.7273 9.61054 25.6826 9.60253 25.6382 9.60661L21.4257 9.99036C20.9157 10.0366 20.4069 10.0779 19.8969 10.1154C19.7949 10.1228 19.6975 10.1612 19.618 10.2256C19.5384 10.29 19.4805 10.3771 19.4519 10.4754L16.3019 21.2729ZM25.6694 7.72161C25.713 7.71779 25.7548 7.70259 25.7907 7.67753C25.8266 7.65248 25.8553 7.61845 25.8739 7.57884C25.8925 7.53924 25.9003 7.49545 25.8967 7.45184C25.8931 7.40824 25.8781 7.36635 25.8532 7.33036L21.8057 1.46161C21.6332 1.21168 21.4026 1.00738 21.1337 0.866284C20.8648 0.725189 20.5656 0.65152 20.2619 0.651612H17.1494C17.1084 0.651612 17.068 0.661721 17.0317 0.681045C16.9955 0.70037 16.9646 0.728317 16.9418 0.762417C16.9189 0.796517 16.9048 0.835721 16.9007 0.876566C16.8966 0.917411 16.9026 0.95864 16.9182 0.996612L19.7394 7.90036C19.7795 7.99802 19.8495 8.08048 19.9393 8.13594C20.0291 8.1914 20.1342 8.21702 20.2394 8.20911C20.5769 8.18286 20.9169 8.15411 21.2557 8.12161L25.6694 7.72161ZM14.8744 0.959112C14.8364 0.867878 14.7721 0.789972 14.6898 0.73524C14.6075 0.680508 14.5108 0.651407 14.4119 0.651612H12.4244C12.3256 0.651407 12.2289 0.680508 12.1466 0.73524C12.0642 0.789972 12 0.867878 11.9619 0.959112L9.01443 8.03161C8.99917 8.06862 8.99302 8.10876 8.9965 8.14864C8.99997 8.18852 9.01298 8.22698 9.03442 8.26079C9.05585 8.2946 9.0851 8.32277 9.11969 8.34292C9.15427 8.36308 9.1932 8.37463 9.23318 8.37661C12.0207 8.51161 14.8157 8.51161 17.6044 8.37661C17.6443 8.37444 17.6831 8.36275 17.7175 8.34251C17.7519 8.32228 17.781 8.29409 17.8023 8.26031C17.8236 8.22652 17.8365 8.18813 17.8399 8.14834C17.8433 8.10855 17.8372 8.06853 17.8219 8.03161L14.8744 0.959112ZM9.91818 0.996612C9.93378 0.95864 9.93979 0.917411 9.93568 0.876566C9.93157 0.835721 9.91746 0.796517 9.8946 0.762417C9.87174 0.728317 9.84084 0.70037 9.80462 0.681045C9.7684 0.661721 9.72798 0.651612 9.68693 0.651612H6.57443C6.27076 0.65152 5.9716 0.725189 5.70269 0.866284C5.43378 1.00738 5.20317 1.21168 5.03068 1.46161L0.983182 7.33036C0.958293 7.36635 0.943284 7.40824 0.939656 7.45184C0.936028 7.49545 0.943909 7.53924 0.962509 7.57884C0.981109 7.61845 1.00978 7.65248 1.04565 7.67753C1.08152 7.70259 1.12334 7.71779 1.16693 7.72161L5.58068 8.12161C5.91943 8.15411 6.25818 8.18286 6.59693 8.20911C6.70223 8.21721 6.80738 8.19168 6.89723 8.13619C6.98709 8.08071 7.05701 7.99813 7.09693 7.90036L9.91818 0.996612Z" fill="#FFC700"/>
</svg>
